<?xml version="1.0" encoding="UTF-8" standalone="no"?><!DOCTYPE svg PUBLIC "-//W3C//DTD SVG 1.1//EN" "http://www.w3.org/Graphics/SVG/1.1/DTD/svg11.dtd"><svg width="100%" height="100%" viewBox="0 0 252 188" version="1.1" xmlns="http://www.w3.org/2000/svg" xmlns:xlink="http://www.w3.org/1999/xlink" xml:space="preserve" xmlns:serif="http://www.serif.com/" style="fill-rule:evenodd;clip-rule:evenodd;stroke-linejoin:round;stroke-miterlimit:2;"><g id="Background"><path d="M214.171,92.578c-0.14,0.137 -0.445,-0.386 -0.445,-0.386c-1.943,-2.221 -1.881,-2.249 -20.11,-20.36c-7.958,-7.907 -20.859,-25.627 -42.882,-17.273c-4.401,1.67 -7.115,2.699 -43.14,40.018c-0.172,0.141 -29.299,29.027 -37.651,37.697c-24.953,23.798 -32.481,34.187 -34.481,32.407c-2.391,-2.127 -30.355,-30.307 -32.982,-32.955c-2.151,-2.168 -3.577,-2.585 -1.382,-4.747c41.102,-40.501 101.778,-103.64 113.421,-111.644c23.849,-16.395 68.05,-28.258 107.797,11.287c27.269,27.131 27.059,27.466 28.944,28.291c0.03,0.077 0.104,0.197 0.22,0.355c0,0 -31.017,31.156 -37.31,37.31Z" style="fill:#2f2f2f;"/><path d="M69.944,132.273c8.352,-8.67 37.479,-37.556 37.651,-37.697c0.585,1.462 1.438,2.537 11.396,12.133c14.07,13.557 20.485,22.938 30.355,26.523c21.065,7.653 34.117,-10.158 41.588,-17.421c21.532,-20.93 22.791,-23.62 22.791,-23.62l37.498,37.774c0,0 -33.701,38.268 -53.824,47.979c-13.032,6.289 -40.665,17.843 -76.585,-0.343c-19.616,-9.932 -44.665,-42.236 -50.87,-45.329Z" style="fill:#626262;"/></g></svg>